<?xml version="1.0" standalone="no"?>
<!DOCTYPE svg PUBLIC "-//W3C//DTD SVG 20010904//EN"
 "http://www.w3.org/TR/2001/REC-SVG-20010904/DTD/svg10.dtd">
<svg version="1.0" xmlns="http://www.w3.org/2000/svg"
 width="1024.000000pt" height="1024.000000pt" viewBox="0 0 1024.000000 1024.000000"
 preserveAspectRatio="xMidYMid meet">
<metadata>
Created by potrace 1.16, written by Peter Selinger 2001-2019
</metadata>
<g transform="translate(0.000000,1024.000000) scale(0.100000,-0.100000)"
fill="#000000" stroke="none">
<path d="M5310 8860 c0 -11 -4 -20 -10 -20 -5 0 -10 -9 -10 -20 0 -11 -4 -20
-10 -20 -5 0 -10 -9 -10 -20 0 -11 -4 -20 -10 -20 -5 0 -10 -9 -10 -20 0 -11
-4 -20 -10 -20 -5 0 -10 -13 -10 -30 0 -16 -4 -30 -10 -30 -5 0 -10 -9 -10
-20 0 -11 -4 -20 -10 -20 -5 0 -10 -9 -10 -20 0 -11 -4 -20 -10 -20 -5 0 -10
-9 -10 -20 0 -11 -4 -20 -10 -20 -5 0 -10 -9 -10 -20 0 -11 -4 -20 -10 -20 -5
0 -10 -9 -10 -20 0 -11 -4 -20 -10 -20 -5 0 -10 -9 -10 -20 0 -11 -4 -20 -10
-20 -5 0 -10 -9 -10 -20 0 -11 -4 -20 -10 -20 -5 0 -10 -9 -10 -20 0 -11 -4
-20 -10 -20 -5 0 -10 -9 -10 -20 0 -11 -4 -20 -10 -20 -5 0 -10 -9 -10 -20 0
-11 -4 -20 -10 -20 -5 0 -10 -9 -10 -20 0 -11 -4 -20 -10 -20 -5 0 -10 -9 -10
-20 0 -11 -4 -20 -10 -20 -5 0 -10 -9 -10 -20 0 -11 -4 -20 -10 -20 -5 0 -10
-9 -10 -20 0 -11 -4 -20 -10 -20 -5 0 -10 -9 -10 -20 0 -11 -4 -20 -10 -20 -5
0 -10 -9 -10 -20 0 -11 -4 -20 -10 -20 -5 0 -10 -9 -10 -20 0 -11 -4 -20 -10
-20 -5 0 -10 -17 -10 -37 0 -31 22 8 136 238 130 262 257 527 309 644 19 43
21 55 9 55 -7 0 -14 -9 -14 -20z"/>
<path d="M5366 8838 c10 -33 306 -645 385 -797 38 -73 69 -138 69 -142 0 -5
-97 -9 -216 -9 l-215 0 32 -57 c36 -63 190 -315 388 -630 69 -112 174 -281
232 -375 58 -95 146 -236 196 -313 49 -77 115 -180 145 -230 130 -213 196
-318 278 -440 47 -71 89 -139 93 -150 12 -32 271 -413 278 -409 4 2 6 -4 5
-14 0 -9 5 -16 12 -14 8 1 11 -2 7 -8 -3 -5 -1 -10 5 -10 6 0 9 -3 6 -8 -2 -4
25 -50 60 -102 85 -126 225 -351 364 -585 62 -104 120 -200 128 -212 13 -21
13 -23 -6 -23 -21 0 -137 169 -261 380 -34 58 -102 168 -152 245 -49 77 -122
191 -162 254 -39 63 -121 187 -180 275 -253 377 -368 552 -501 765 -78 124
-168 267 -200 316 -158 246 -593 940 -718 1148 -49 81 -91 147 -93 147 -2 0
-50 -78 -106 -172 -57 -95 -163 -267 -238 -383 -273 -426 -399 -628 -447 -715
-10 -19 -26 -42 -34 -52 -8 -9 -107 -161 -220 -338 -113 -176 -313 -485 -445
-685 -132 -201 -253 -386 -268 -412 -15 -27 -66 -106 -112 -178 -46 -71 -146
-230 -222 -352 -94 -151 -144 -222 -155 -223 -31 0 -53 -39 222 410 79 129
183 294 230 365 179 268 457 697 575 885 67 107 200 319 295 470 95 151 221
354 280 450 59 96 167 270 240 385 72 116 159 257 192 315 34 58 83 138 110
178 76 112 92 102 -158 100 l-219 -3 203 -2 c123 -2 202 -7 202 -13 0 -6 -4
-10 -10 -10 -5 0 -10 -8 -10 -18 0 -10 -9 -24 -20 -32 -11 -8 -20 -21 -20 -30
0 -9 -9 -22 -20 -30 -11 -8 -20 -21 -20 -30 0 -9 -9 -22 -20 -30 -11 -8 -20
-22 -20 -32 0 -10 -4 -18 -10 -18 -5 0 -10 -9 -10 -20 0 -11 -4 -20 -10 -20
-5 0 -10 -8 -10 -18 0 -10 -9 -24 -20 -32 -11 -8 -20 -22 -20 -32 0 -10 -4
-18 -10 -18 -5 0 -10 -8 -10 -18 0 -10 -9 -24 -20 -32 -11 -8 -20 -21 -20 -30
0 -9 -9 -22 -20 -30 -11 -8 -20 -21 -20 -30 0 -9 -9 -22 -20 -30 -11 -8 -20
-22 -20 -32 0 -10 -4 -18 -10 -18 -5 0 -10 -7 -10 -15 0 -15 -42 -65 -55 -65
-3 0 -5 20 -5 45 0 43 -4 49 -75 120 -41 41 -81 75 -88 75 -7 0 -19 9 -27 20
-8 11 -22 20 -32 20 -10 0 -18 5 -18 10 0 6 -9 10 -20 10 -11 0 -20 5 -20 10
0 6 -9 10 -20 10 -11 0 -20 5 -20 10 0 6 -13 10 -30 10 -16 0 -30 5 -30 10 0
6 -25 10 -57 9 l-58 -1 61 -13 c120 -26 277 -124 374 -233 55 -62 54 -60 40
-97 -9 -23 -13 -25 -25 -15 -13 11 -20 9 -38 -9 -26 -23 -57 -28 -57 -8 0 6
16 23 35 36 19 13 35 27 35 32 0 5 -20 30 -45 56 l-45 47 -29 -28 c-37 -36
-59 -26 -31 14 11 15 20 30 20 33 0 6 -114 77 -124 77 -4 0 -12 -14 -18 -31
-7 -20 -16 -29 -27 -27 -17 4 -18 15 -6 60 6 25 4 27 -46 42 -73 22 -77 21
-81 -21 -2 -27 -8 -39 -20 -41 -15 -3 -18 4 -18 37 0 39 -2 41 -30 41 -47 0
-131 -21 -136 -34 -3 -7 0 -24 5 -39 15 -38 -7 -47 -34 -14 -11 15 -27 27 -35
27 -8 0 -53 -22 -101 -50 -98 -55 -192 -90 -241 -90 -44 1 -102 28 -167 80
-49 39 -53 40 -34 14 31 -44 102 -107 154 -137 24 -14 89 -41 144 -60 132 -47
167 -62 248 -109 97 -56 180 -129 227 -199 35 -51 40 -64 32 -87 -10 -30 -25
-33 -31 -5 -6 33 -38 68 -63 68 -19 0 -23 5 -23 30 0 25 -11 38 -70 82 l-69
53 -31 -30 c-48 -46 -63 -34 -25 21 l21 28 -43 22 c-23 12 -90 39 -148 61
-170 64 -229 97 -301 169 -90 90 -134 179 -154 317 -15 101 -31 152 -46 152
-25 0 -79 -161 -79 -235 1 -111 63 -279 137 -365 19 -22 33 -43 30 -46 -9 -10
-85 87 -120 154 -82 156 -87 287 -18 482 42 118 48 154 31 180 -7 11 -10 -3
-10 -47 0 -35 -4 -63 -10 -63 -5 0 -10 -9 -10 -20 0 -11 -4 -20 -10 -20 -5 0
-10 -9 -10 -20 0 -11 -4 -20 -10 -20 -5 0 -10 -13 -10 -30 0 -16 -4 -30 -10
-30 -6 0 -10 -57 -10 -150 0 -93 4 -150 10 -150 6 0 10 -18 10 -40 0 -22 5
-40 10 -40 6 0 10 -9 10 -20 0 -11 5 -20 10 -20 6 0 10 -9 10 -20 0 -11 5 -20
10 -20 6 0 10 -8 10 -18 0 -10 9 -24 20 -32 11 -8 20 -21 20 -28 0 -8 14 -27
30 -42 51 -48 33 -100 -34 -100 -20 0 -36 -4 -36 -10 0 -5 -13 -10 -30 -10
-16 0 -30 -4 -30 -10 0 -5 -13 -10 -30 -10 -16 0 -30 -4 -30 -10 0 -5 -13 -10
-30 -10 -16 0 -30 -4 -30 -10 0 -5 -9 -10 -20 -10 -11 0 -20 -4 -20 -10 0 -5
-13 -10 -30 -10 -16 0 -30 -4 -30 -10 0 -5 -9 -10 -20 -10 -11 0 -20 -4 -20
-10 0 -5 -22 -10 -50 -10 -27 0 -50 5 -50 10 0 6 -22 10 -50 10 -27 0 -50 5
-50 10 0 6 -42 10 -107 9 -100 -1 -104 -2 -48 -9 33 -5 90 -11 127 -15 38 -4
68 -11 68 -16 0 -5 -10 -9 -22 -9 -35 0 -46 -12 -50 -50 -4 -47 -22 -45 -26 3
l-3 37 -55 0 -54 0 0 -36 c0 -45 -24 -42 -28 4 -3 28 -7 32 -40 37 -63 9 -104
22 -206 64 -54 22 -103 38 -108 35 -5 -3 -15 1 -21 9 -7 9 -43 27 -80 41 l-69
26 -19 -23 -18 -22 -1 26 c0 23 -6 28 -44 38 -61 15 -64 14 -68 -11 -2 -13
-10 -24 -19 -26 -13 -2 -15 3 -11 24 5 25 3 26 -29 19 -123 -27 -218 -96 -266
-193 -56 -114 -27 -258 71 -357 23 -22 61 -50 86 -63 25 -12 37 -22 27 -22
-31 0 -111 47 -155 90 -23 23 -54 67 -69 98 -24 50 -28 69 -28 147 0 71 5 100
22 137 44 95 151 184 250 207 l38 9 -52 1 c-30 1 -53 -3 -53 -9 0 -5 -9 -10
-20 -10 -11 0 -20 -4 -20 -10 0 -5 -7 -10 -15 -10 -20 0 -125 -105 -125 -125
0 -8 -4 -15 -10 -15 -5 0 -10 -9 -10 -20 0 -11 -4 -20 -10 -20 -6 0 -10 -50
-10 -130 0 -80 4 -130 10 -130 6 0 10 -9 10 -20 0 -11 5 -20 10 -20 6 0 10 -9
10 -20 0 -11 5 -20 10 -20 6 0 10 -7 10 -15 0 -18 84 -105 100 -105 17 0 40
-26 40 -44 0 -9 -4 -16 -10 -16 -20 0 -9 -33 20 -60 23 -21 30 -37 30 -64 0
-20 -4 -36 -10 -36 -5 0 -10 -9 -10 -20 0 -11 -4 -20 -10 -20 -6 0 -10 -47
-10 -120 0 -73 4 -120 10 -120 6 0 10 -18 10 -40 0 -22 5 -40 10 -40 6 0 10
-9 10 -20 0 -11 5 -20 10 -20 6 0 10 -9 10 -20 0 -11 5 -20 10 -20 6 0 10 -7
10 -15 0 -20 145 -165 165 -165 8 0 15 -4 15 -10 0 -5 9 -10 20 -10 11 0 20
-4 20 -10 0 -5 9 -10 20 -10 11 0 20 -4 20 -10 0 -5 14 -10 30 -10 17 0 30 -4
30 -10 0 -5 18 -10 40 -10 38 0 40 -2 40 -30 0 -27 -3 -30 -32 -31 -32 -1 -32
-1 7 -10 22 -5 85 -31 140 -58 55 -27 118 -55 140 -61 68 -21 174 -81 206
-117 53 -61 43 -58 -169 52 -39 21 -74 36 -77 34 -2 -3 21 -35 51 -72 60 -76
89 -121 62 -99 -11 9 -17 9 -20 2 -2 -6 -17 14 -33 45 -33 64 -132 161 -173
172 -15 3 -45 14 -67 24 -53 23 -243 36 -275 19 -44 -24 -109 -92 -120 -126
-7 -20 -10 -37 -8 -40 3 -2 25 3 49 12 25 9 79 17 124 17 70 2 88 -2 138 -27
73 -35 125 -100 162 -198 45 -122 77 -178 135 -237 126 -129 320 -183 544
-151 65 10 87 8 73 -6 -14 -14 -138 -33 -217 -34 -224 -1 -456 134 -534 310
-84 190 -107 231 -148 260 -61 45 -110 55 -191 41 -37 -6 -90 -22 -117 -36
-27 -14 -52 -25 -56 -25 -4 0 -4 32 0 71 l6 70 -45 -31 c-109 -75 -270 -120
-431 -120 -107 0 -149 12 -169 49 l-14 26 -1 -35 c0 -24 6 -40 20 -50 11 -8
20 -20 20 -28 0 -18 46 -62 65 -62 8 0 15 -4 15 -10 0 -5 14 -10 30 -10 17 0
30 -4 30 -10 0 -6 43 -10 110 -10 67 0 110 4 110 10 0 6 27 10 60 10 33 0 60
4 60 10 0 6 23 10 50 10 28 0 50 5 50 10 0 6 9 10 20 10 11 0 20 -4 20 -10 0
-5 -9 -10 -20 -10 -11 0 -20 -4 -20 -10 0 -5 -13 -10 -30 -10 -16 0 -30 -4
-30 -10 0 -5 -18 -10 -40 -10 -22 0 -40 -4 -40 -10 0 -18 32 -11 163 34 105
35 130 41 144 31 18 -14 24 -9 -97 -72 -60 -31 -222 -83 -263 -84 -17 0 -41
-4 -52 -9 -19 -8 -19 -9 3 -9 13 -1 21 -5 17 -10 -7 -13 -115 -3 -140 13 -11
7 -31 16 -45 19 -14 3 -51 22 -84 42 -67 40 -66 40 -66 20 0 -8 34 -49 75 -90
53 -54 82 -75 100 -75 14 0 25 -4 25 -10 0 -6 59 -10 156 -10 121 0 159 -3
170 -14 8 -8 14 -17 14 -20 0 -3 -45 -6 -100 -6 -79 0 -100 -3 -100 -14 0 -11
13 -13 63 -10 77 6 189 24 202 34 6 3 33 15 60 24 28 10 86 37 130 60 98 52
109 56 124 46 16 -9 -93 -94 -156 -122 -23 -10 -45 -23 -48 -28 -3 -6 -15 -10
-26 -10 -10 0 -19 -4 -19 -9 0 -9 -25 -15 -117 -31 -36 -6 -71 -4 -120 6 -88
18 -93 18 -93 -6 0 -13 7 -20 20 -20 11 0 20 -4 20 -10 0 -5 9 -10 20 -10 11
0 20 -4 20 -10 0 -5 9 -10 20 -10 11 0 20 -4 20 -10 0 -5 14 -10 30 -10 17 0
30 -4 30 -10 0 -6 43 -10 110 -10 67 0 110 4 110 10 0 6 9 10 20 10 11 0 20
-4 20 -10 0 -5 -4 -10 -10 -10 -5 0 -10 -18 -10 -40 0 -33 3 -40 20 -40 11 0
20 -4 20 -10 0 -5 7 -10 16 -10 20 0 44 -24 44 -44 0 -14 -44 -16 -410 -16
l-410 0 0 -160 0 -160 -190 0 -190 0 0 -610 0 -610 60 0 60 0 0 200 c0 193 1
200 20 200 11 0 20 -4 20 -10 0 -6 57 -10 150 -10 143 0 150 -1 150 -20 0 -17
-7 -20 -40 -20 l-40 0 0 -340 0 -340 2150 0 c1427 0 2150 3 2150 10 0 6 33 10
80 10 47 0 80 4 80 10 0 6 22 10 48 10 36 0 51 -5 62 -20 14 -20 26 -20 1882
-20 l1868 0 0 346 c0 286 2 348 14 360 11 10 41 14 110 14 57 0 96 4 96 10 0
6 9 10 20 10 19 0 20 -7 20 -200 l0 -200 60 0 60 0 0 610 0 610 -200 0 c-127
0 -200 -4 -200 -10 0 -6 70 -10 190 -10 157 0 190 -2 190 -14 0 -41 -2 -41
-225 -38 l-215 3 0 160 0 159 -722 -1 c-398 -1 -749 -4 -780 -6 -55 -5 -57 -6
-47 -26 14 -26 2 -15 -33 34 l-27 36 457 6 c251 4 627 7 835 7 244 0 377 4
377 10 0 7 -150 10 -430 10 -381 0 -430 2 -430 15 0 20 45 65 65 65 8 0 15 9
15 20 0 11 -4 20 -10 20 -5 0 -10 9 -10 20 0 13 -7 20 -20 20 -11 0 -20 5 -20
10 0 6 -9 10 -20 10 -11 0 -20 5 -20 10 0 6 -9 10 -20 10 -11 0 -20 5 -20 10
0 6 -7 10 -16 10 -20 0 -49 29 -39 38 4 4 10 1 12 -5 3 -7 13 -13 24 -13 10 0
19 -4 19 -10 0 -5 9 -10 20 -10 11 0 20 -4 20 -10 0 -5 14 -10 30 -10 17 0 30
-4 30 -10 0 -5 18 -10 40 -10 22 0 40 -4 40 -10 0 -6 40 -10 100 -10 60 0 100
4 100 10 0 6 18 10 40 10 22 0 40 5 40 10 0 6 9 10 20 10 11 0 20 5 20 10 0 6
9 10 20 10 11 0 20 5 20 10 0 6 7 10 16 10 18 0 44 23 44 40 0 31 -29 40 -124
40 -57 0 -96 4 -96 10 0 6 -9 10 -20 10 -11 0 -20 5 -20 10 0 6 -9 10 -20 10
-11 0 -20 5 -20 10 0 6 14 10 30 10 17 0 30 -4 30 -10 0 -6 67 -10 180 -10
113 0 180 4 180 10 0 6 9 10 20 10 11 0 20 5 20 10 0 6 7 10 15 10 20 0 145
125 145 145 0 25 -20 17 -66 -25 -24 -22 -52 -40 -61 -40 -16 0 -16 2 -3 11
12 9 11 10 -5 4 -96 -31 -215 -29 -354 6 -123 31 -271 95 -340 147 -33 24 -33
26 -13 33 16 6 50 -4 125 -36 127 -55 242 -86 323 -88 44 -2 60 -5 57 -14 -4
-10 14 -13 73 -11 70 2 72 2 22 5 -50 3 -58 7 -58 23 0 18 7 20 80 20 47 0 80
4 80 10 0 6 14 10 30 10 17 0 30 5 30 10 0 6 9 10 20 10 11 0 20 5 20 10 0 6
7 10 16 10 19 0 44 24 44 42 0 8 9 20 20 28 14 10 20 26 20 50 l0 35 -19 -31
c-28 -45 -37 -49 -126 -50 -192 -1 -396 52 -492 129 -7 5 -13 6 -13 2 0 -4
-10 4 -21 19 -29 37 -35 26 -11 -21 20 -39 39 -113 29 -113 -3 0 -41 14 -84
31 -98 40 -186 44 -248 12 -53 -28 -115 -96 -139 -153 -63 -152 -97 -209 -162
-268 -71 -66 -185 -130 -279 -158 -41 -12 -92 -17 -160 -17 -106 1 -168 13
-200 38 -19 16 -19 16 10 10 70 -14 262 -17 319 -5 84 17 210 86 281 152 62
58 75 80 144 231 68 148 128 205 241 225 57 10 143 3 193 -17 34 -13 34 -4 -1
45 -35 48 -96 102 -129 115 -33 12 -141 11 -203 -2 -59 -13 -162 -68 -191
-101 -10 -13 -45 -61 -76 -107 -63 -91 -144 -176 -175 -184 -11 -3 5 17 37 46
50 47 189 236 180 245 -2 3 -50 -20 -107 -50 -123 -65 -148 -73 -148 -49 0 10
8 25 18 33 23 21 128 73 199 100 32 11 90 38 128 58 39 21 96 46 127 57 42 13
58 23 58 36 0 26 45 67 75 67 14 0 25 5 25 10 0 6 9 10 20 10 11 0 20 5 20 10
0 6 9 10 20 10 11 0 20 5 20 10 0 6 9 10 20 10 11 0 20 5 20 10 0 6 7 10 15
10 9 0 40 25 70 55 30 30 55 61 55 70 0 8 5 15 10 15 6 0 10 9 10 20 0 11 5
20 10 20 6 0 10 9 10 20 0 11 5 20 10 20 6 0 10 9 10 20 0 11 5 20 10 20 6 0
10 24 9 53 l0 52 -15 -54 c-8 -30 -27 -77 -41 -105 -35 -64 -153 -184 -217
-219 -160 -89 -420 -131 -565 -93 -72 20 -116 51 -197 140 -54 59 -85 84 -144
113 -73 37 -78 38 -180 38 -72 0 -124 -6 -165 -19 -85 -25 -219 -91 -259 -127
-19 -16 -44 -32 -56 -34 -12 -2 -29 -10 -39 -16 -9 -6 18 22 60 63 137 136
270 194 444 192 90 0 108 -4 180 -34 68 -29 94 -48 181 -132 131 -125 162
-140 310 -146 150 -6 249 14 373 74 119 58 188 125 240 234 81 170 35 360 -88
360 -39 0 -79 -29 -67 -49 3 -5 -8 -12 -25 -16 -63 -14 -147 -122 -150 -195
l-1 -25 -8 25 c-21 66 14 153 88 222 89 83 172 109 238 75 43 -22 65 -50 85
-109 l18 -53 1 53 c0 28 -4 52 -10 52 -5 0 -10 8 -10 18 0 10 -9 24 -20 32
-38 28 -14 70 40 70 17 0 38 6 46 14 17 18 19 83 2 88 -7 3 14 31 50 66 34 33
62 68 62 76 0 9 5 16 10 16 6 0 10 14 10 30 0 17 5 30 10 30 6 0 10 47 10 120
0 73 -4 120 -10 120 -5 0 -10 14 -10 30 0 17 -4 30 -10 30 -5 0 -10 7 -10 15
0 20 -105 125 -125 125 -8 0 -15 5 -15 10 0 6 -13 10 -30 10 -16 0 -30 5 -30
10 0 6 -27 10 -62 9 l-63 -1 54 -9 c119 -20 240 -117 280 -225 25 -66 27 -159
6 -232 -26 -86 -135 -191 -225 -217 -14 -4 4 13 40 38 98 67 149 149 158 253
11 138 -58 242 -198 301 -100 42 -114 43 -118 16 -5 -32 -32 -29 -32 3 0 24
-3 25 -32 19 -62 -12 -68 -16 -68 -41 0 -29 -16 -32 -25 -4 -8 25 -13 25 -72
-4 -26 -14 -60 -28 -75 -31 -16 -4 -28 -11 -28 -16 0 -5 -11 -9 -24 -9 -26 0
-79 -17 -146 -48 -25 -11 -72 -26 -105 -32 -94 -18 -95 -18 -95 -51 0 -38 -19
-38 -26 1 -6 28 -9 30 -55 30 l-49 0 0 -41 c0 -53 -22 -47 -33 9 -8 41 -9 42
-47 42 -63 0 -57 19 7 23 51 3 49 3 -21 5 -70 2 -81 0 -99 -20 -13 -16 -21
-19 -24 -10 -3 6 -18 12 -34 12 -16 0 -29 5 -29 10 0 6 -13 10 -30 10 -16 0
-30 5 -30 10 0 6 -9 10 -20 10 -11 0 -20 5 -20 10 0 6 -13 10 -30 10 -16 0
-30 5 -30 10 0 6 -9 10 -20 10 -11 0 -20 5 -20 10 0 6 -13 10 -30 10 -16 0
-30 5 -30 10 0 6 -13 10 -30 10 -16 0 -30 5 -30 10 0 6 -20 10 -45 10 -35 0
-52 6 -70 25 -14 13 -25 29 -25 35 0 6 23 33 50 60 28 27 50 55 50 62 0 8 9
20 20 28 11 8 20 22 20 32 0 10 5 18 10 18 6 0 10 14 10 30 0 17 5 30 10 30 6
0 10 23 10 50 0 28 5 50 10 50 6 0 10 47 10 120 0 73 -4 120 -10 120 -5 0 -10
18 -10 40 0 22 -4 40 -10 40 -5 0 -10 9 -10 20 0 11 -4 20 -10 20 -5 0 -10 9
-10 20 0 11 -4 20 -10 20 -5 0 -10 14 -10 30 0 17 -4 30 -10 30 -16 0 -12 -25
19 -103 43 -108 53 -153 53 -242 1 -94 -20 -181 -61 -263 -30 -60 -109 -167
-117 -159 -3 3 19 40 48 83 36 52 64 109 82 166 26 78 28 97 24 180 -4 70 -12
107 -31 151 -43 96 -65 73 -87 -97 -24 -178 -129 -319 -305 -408 -49 -25 -108
-51 -130 -58 -22 -7 -70 -25 -106 -41 -36 -15 -78 -33 -93 -39 l-28 -10 26
-34 c38 -51 32 -62 -14 -26 -22 18 -46 30 -53 27 -6 -3 -38 -26 -70 -52 -49
-39 -58 -51 -53 -70 7 -26 -14 -48 -36 -40 -9 4 -25 -9 -43 -35 -16 -23 -36
-40 -47 -40 -23 0 -18 11 52 115 84 124 223 219 420 287 255 88 356 176 413
363 20 64 32 205 17 205 -6 0 -10 -31 -10 -80 0 -47 -4 -80 -10 -80 -5 0 -10
-7 -10 -16 0 -18 -23 -44 -40 -44 -6 0 -38 -27 -70 -60 -32 -33 -66 -60 -74
-60 -9 0 -16 -4 -16 -10 0 -5 -9 -10 -20 -10 -11 0 -20 -4 -20 -10 0 -5 -18
-10 -40 -10 -22 0 -40 5 -40 10 0 6 -13 10 -30 10 -16 0 -30 5 -30 10 0 6 -8
10 -18 10 -10 0 -24 9 -32 20 -8 11 -22 20 -32 20 -10 0 -18 5 -18 10 0 6 -9
10 -20 10 -11 0 -20 5 -20 10 0 6 -9 10 -20 10 -11 0 -20 5 -20 10 0 6 -9 10
-20 10 -11 0 -20 5 -20 10 0 6 -13 10 -30 10 -16 0 -30 5 -30 10 0 6 -24 10
-52 9 l-53 0 55 -15 c30 -8 124 -49 208 -91 223 -112 271 -111 412 2 73 59 78
61 68 33 -15 -42 -99 -123 -156 -149 -77 -36 -140 -31 -246 19 -49 23 -111 56
-138 72 -26 17 -52 30 -57 30 -5 0 -14 -14 -20 -31 -19 -54 -47 -17 -30 40 5
16 -74 40 -132 41 -35 0 -37 -2 -43 -40 -3 -22 -11 -40 -16 -40 -10 0 -27 57
-22 74 3 10 -61 0 -101 -16 -26 -10 -28 -14 -22 -45 3 -19 9 -41 12 -49 11
-29 -26 -13 -47 21 -24 39 -31 38 -97 -13 -32 -23 -32 -25 -17 -54 21 -41 14
-53 -18 -29 -34 27 -38 27 -77 -11 -54 -53 -55 -62 -15 -93 28 -21 33 -30 23
-41 -9 -11 -16 -9 -44 11 -18 14 -39 23 -48 19 -10 -3 -16 1 -19 12 -3 17 -4
17 -20 0 -16 -15 -20 -16 -33 -2 -8 8 -15 22 -15 30 0 9 -4 16 -10 16 -5 0
-10 8 -10 18 0 10 -9 24 -20 32 -11 8 -20 21 -20 30 0 9 -9 22 -20 30 -11 8
-20 22 -20 32 0 10 -4 18 -10 18 -5 0 -10 8 -10 18 0 10 -9 24 -20 32 -11 8
-20 22 -20 32 0 10 -4 18 -10 18 -5 0 -10 8 -10 18 0 10 -9 24 -20 32 -11 8
-20 22 -20 32 0 10 -4 18 -10 18 -5 0 -10 8 -10 18 0 10 -9 24 -20 32 -11 8
-20 21 -20 30 0 9 -9 22 -20 30 -11 8 -20 22 -20 32 0 10 -4 18 -10 18 -5 0
-10 8 -10 18 0 10 -9 24 -20 32 -11 8 -20 22 -20 32 0 17 15 18 200 18 l200 0
0 40 c0 22 -4 40 -10 40 -5 0 -10 9 -10 20 0 11 -4 20 -10 20 -5 0 -10 9 -10
20 0 11 -4 20 -10 20 -5 0 -10 9 -10 20 0 11 -4 20 -10 20 -5 0 -10 9 -10 20
0 11 -4 20 -10 20 -5 0 -10 9 -10 20 0 11 -4 20 -10 20 -5 0 -10 9 -10 20 0
11 -4 20 -10 20 -5 0 -10 9 -10 20 0 11 -4 20 -10 20 -5 0 -10 9 -10 20 0 11
-4 20 -10 20 -5 0 -10 9 -10 20 0 11 -4 20 -10 20 -5 0 -10 9 -10 20 0 11 -4
20 -10 20 -5 0 -10 9 -10 20 0 11 -4 20 -10 20 -5 0 -10 9 -10 20 0 11 -4 20
-10 20 -5 0 -10 9 -10 20 0 11 -4 20 -10 20 -5 0 -10 9 -10 20 0 11 -4 20 -10
20 -5 0 -10 9 -10 20 0 11 -4 20 -10 20 -5 0 -10 9 -10 20 0 11 -4 20 -10 20
-5 0 -10 9 -10 20 0 11 -4 20 -10 20 -5 0 -10 9 -10 20 0 11 -4 20 -10 20 -5
0 -10 9 -10 20 0 11 -4 20 -10 20 -5 0 -10 9 -10 20 0 11 -4 20 -10 20 -5 0
-10 9 -10 20 0 11 -4 20 -10 20 -5 0 -10 14 -10 30 0 21 -5 30 -16 30 -11 0
-14 -6 -8 -22z m127 -1705 c152 -231 179 -275 499 -780 221 -352 340 -543 576
-933 85 -140 196 -322 247 -405 150 -244 222 -370 227 -399 8 -39 -5 -23 -92
114 -40 63 -121 188 -179 277 -58 89 -141 219 -184 290 -42 70 -100 164 -129
208 -28 44 -123 199 -211 345 -88 146 -211 344 -275 440 -63 96 -144 222 -180
280 -102 166 -151 240 -304 472 l-143 216 -140 -211 c-77 -117 -189 -291 -249
-387 -60 -96 -142 -224 -182 -285 -40 -60 -74 -116 -76 -124 -2 -8 -13 -24
-25 -35 -33 -33 -133 -206 -126 -222 3 -8 -1 -14 -10 -14 -16 0 -30 -26 -22
-40 3 -5 0 -12 -6 -16 -8 -5 -10 -2 -5 7 4 8 -2 3 -13 -11 -23 -27 -28 -45 -9
-34 7 4 8 3 4 -5 -4 -6 -11 -9 -16 -6 -10 6 -64 -71 -141 -204 -30 -51 -64
-110 -76 -130 -25 -40 -29 -56 -11 -45 7 4 8 3 4 -5 -4 -6 -11 -9 -15 -6 -14
8 -179 -259 -235 -380 -19 -42 -29 -56 -35 -46 -6 9 -20 -10 -47 -64 -21 -42
-48 -86 -61 -98 -12 -12 -69 -91 -124 -175 -56 -84 -104 -150 -107 -148 -10
10 147 280 398 686 46 74 152 248 235 385 208 342 360 588 409 660 22 33 113
175 201 315 283 446 468 730 477 730 5 0 73 -98 151 -217z m-1863 -113 c64
-10 180 -61 230 -101 l25 -20 -40 18 c-22 10 -42 20 -45 23 -3 3 -17 6 -32 8
-21 2 -31 -4 -43 -25 l-16 -28 6 41 6 41 -57 11 c-71 15 -181 14 -254 -1 -54
-12 -55 -13 -67 -57 l-11 -45 -1 37 c-1 20 -4 39 -8 41 -14 7 -165 -45 -153
-53 14 -8 9 -75 -5 -75 -5 0 -11 17 -13 38 -2 20 -5 37 -7 37 -2 0 -28 -9 -57
-21 -51 -19 -54 -22 -50 -50 3 -22 0 -29 -12 -29 -11 0 -16 9 -16 26 0 23 -3
26 -27 20 -36 -7 -26 -3 162 72 235 92 345 113 485 92z m3637 -1 c84 -11 178
-40 298 -90 79 -34 97 -49 27 -25 -46 16 -52 14 -52 -25 0 -15 -4 -30 -9 -33
-10 -7 -21 27 -21 65 0 24 -7 28 -72 47 -94 28 -186 42 -270 42 -71 0 -164
-16 -173 -30 -3 -4 2 -27 10 -50 20 -56 11 -65 -10 -12 -15 36 -21 41 -53 44
l-37 3 47 23 c49 24 152 50 205 51 17 1 67 -4 110 -10z m-2728 -68 c33 -38 61
-72 61 -75 0 -10 -421 -674 -541 -853 -74 -110 -96 -133 -85 -89 7 30 51 104
191 326 149 235 335 531 358 568 l19 33 -56 59 c-60 63 -59 61 -50 84 12 31
42 15 103 -53z m1730 60 c10 -6 -3 -26 -54 -79 -60 -64 -65 -73 -55 -93 12
-22 231 -369 360 -569 92 -143 210 -345 210 -359 0 -40 -49 27 -239 327 -118
185 -257 403 -308 485 l-94 148 30 38 c40 50 108 111 124 111 6 0 18 -4 26 -9z
m-4329 -121 c52 -10 174 -59 166 -67 -2 -3 -19 3 -38 13 -80 41 -184 54 -241
30 -129 -54 -107 -209 40 -285 12 -6 57 -16 100 -21 71 -9 214 -62 201 -75 -2
-3 -31 2 -64 11 -32 9 -97 20 -144 23 -50 4 -102 15 -125 26 -93 45 -156 151
-134 229 13 46 77 103 126 111 32 6 54 11 59 14 1 1 25 -3 54 -9z m6999 -18
c46 -21 91 -86 91 -130 0 -51 -35 -116 -87 -162 -50 -44 -94 -60 -165 -60 -26
0 -67 -6 -90 -14 -24 -8 -63 -17 -88 -20 l-45 -6 39 24 c38 24 100 43 217 66
135 26 214 165 142 251 -47 55 -120 72 -206 48 -57 -16 -57 -3 -1 15 57 18
141 13 193 -12z m-3533 -117 c40 -71 64 -105 74 -102 8 1 15 13 14 25 0 17 2
19 13 11 18 -16 17 -20 -15 -54 -27 -28 -28 -32 -14 -53 8 -12 12 -25 10 -28
-3 -2 -34 44 -69 102 -35 59 -68 109 -74 110 -5 2 -41 -48 -79 -111 -59 -98
-111 -178 -91 -137 9 17 -5 15 -28 -5 -14 -12 -8 4 17 49 30 54 35 71 27 87
-6 10 -16 21 -23 24 -7 2 -9 8 -5 13 5 5 17 -1 28 -15 11 -13 21 -22 22 -20 2
2 18 28 35 57 62 102 94 152 97 152 1 0 29 -47 61 -105z m-2201 -255 c-3 -5
-52 -23 -108 -40 -56 -17 -172 -54 -257 -82 -238 -79 -379 -79 -469 -2 -35 31
-42 33 -65 23 -14 -7 -26 -15 -26 -19 0 -3 -40 -28 -90 -54 -49 -26 -90 -45
-90 -43 0 11 250 207 263 207 3 0 10 -13 15 -29 6 -16 27 -41 48 -57 37 -28
41 -29 158 -29 118 1 124 2 256 48 203 70 385 109 365 77z m4612 -57 l198 -67
116 -1 c111 0 117 1 152 28 19 15 41 43 48 62 7 19 16 35 19 35 13 0 165 -119
195 -151 17 -19 21 -26 10 -18 -11 9 -31 20 -45 24 -14 4 -49 20 -79 37 l-54
30 -23 -30 c-13 -16 -47 -39 -76 -52 -47 -20 -64 -22 -150 -17 -79 4 -123 14
-235 50 -76 25 -191 62 -256 82 -65 20 -115 40 -112 46 15 24 102 6 292 -58z
m-5851 -193 c53 -30 125 -103 151 -154 20 -38 28 -128 15 -152 -11 -17 -11
-17 -12 6 -1 85 -70 179 -147 199 -45 12 -54 25 -27 35 30 11 -4 36 -50 36
-82 0 -125 -64 -126 -186 0 -121 53 -237 148 -326 65 -60 103 -82 212 -120 90
-31 103 -33 235 -33 177 0 198 9 334 138 136 130 238 177 385 177 148 -1 319
-83 446 -215 60 -63 57 -63 -41 1 -87 57 -220 120 -294 139 -32 8 -89 15 -125
15 -132 0 -215 -39 -340 -162 -62 -60 -112 -99 -149 -117 -52 -24 -65 -26
-191 -25 -117 1 -147 4 -225 28 -253 77 -406 235 -437 452 -19 135 12 224 97
275 42 26 82 23 141 -11z m1224 -104 c136 -21 261 -68 315 -118 11 -11 29 -26
40 -34 17 -13 15 -13 -12 1 -45 22 -62 19 -74 -12 -6 -15 -17 -43 -26 -61 -22
-46 -37 -27 -23 29 20 77 19 79 -35 100 -66 25 -75 24 -75 -8 0 -34 -21 -93
-33 -93 -6 0 -7 24 -4 59 8 71 3 77 -75 86 l-58 7 0 -50 c0 -103 -25 -111 -34
-12 l-7 70 -57 0 c-80 0 -84 -4 -68 -73 7 -32 10 -59 6 -62 -8 -5 -50 79 -50
100 0 22 -18 19 -93 -17 l-67 -33 35 -52 c19 -29 35 -55 35 -58 0 -17 -27 1
-63 41 l-42 46 -48 -42 -48 -42 41 -38 c22 -20 40 -42 40 -48 0 -21 -26 -13
-55 18 -16 17 -33 30 -39 30 -6 0 -27 -17 -48 -37 l-38 -37 32 -26 c22 -19 29
-32 25 -44 -6 -15 -10 -15 -40 8 -19 14 -38 26 -42 26 -19 0 -45 -35 -45 -61
0 -34 -16 -47 -25 -19 -6 18 -14 21 -53 18 -40 -3 -47 -6 -50 -26 -4 -26 -22
-20 -22 7 0 13 -13 21 -54 30 -135 30 -279 129 -327 223 -29 56 -27 160 2 143
5 -4 9 -18 9 -32 0 -76 99 -195 203 -243 69 -33 166 -60 211 -60 56 0 114 38
186 125 136 163 244 239 381 269 85 19 154 19 269 2z m4620 -12 c114 -34 168
-71 316 -220 106 -107 150 -145 178 -152 67 -19 214 15 310 72 84 49 165 161
166 229 0 30 11 35 30 12 16 -19 9 -79 -16 -131 -44 -93 -181 -185 -327 -220
-54 -12 -74 -21 -70 -31 3 -7 1 -13 -5 -13 -5 0 -12 7 -16 15 -4 11 -20 15
-55 15 -41 0 -51 -4 -56 -20 -3 -11 -13 -20 -20 -20 -11 0 -12 6 -5 26 14 36
13 38 -20 57 -29 18 -30 18 -64 -8 -30 -23 -34 -24 -40 -9 -4 11 2 27 19 44
14 14 25 30 25 35 0 14 -52 65 -67 65 -7 0 -31 -16 -52 -35 -55 -50 -65 -25
-12 29 l42 42 -50 42 c-27 23 -54 42 -59 42 -6 0 -23 -20 -39 -45 -28 -45 -53
-59 -53 -29 0 8 11 32 25 52 14 20 25 40 25 45 0 9 -91 52 -132 62 -26 7 -28
5 -28 -24 0 -18 -8 -46 -17 -64 l-18 -32 -3 33 c-2 19 1 47 7 64 6 17 9 33 7
36 -3 2 -35 5 -73 5 l-68 2 -3 -63 c-4 -82 -26 -80 -30 2 l-3 58 -46 -7 c-90
-13 -93 -16 -93 -91 0 -84 -21 -83 -35 3 l-10 60 -47 -16 c-69 -23 -71 -28
-48 -96 11 -32 18 -61 15 -63 -10 -10 -44 31 -62 74 -10 24 -22 44 -26 44 -11
0 -87 -39 -87 -45 0 -3 14 -32 30 -65 17 -33 30 -64 30 -70 0 -23 -18 -7 -54
50 -21 33 -41 60 -44 60 -11 0 -72 -64 -72 -75 0 -6 14 -30 31 -53 38 -52 25
-55 -23 -4 -43 45 -40 62 23 115 134 115 290 192 452 223 88 17 240 11 317
-12z m-2329 -60 c181 -31 345 -108 468 -220 70 -64 184 -201 207 -248 12 -25
12 -27 1 -14 -8 10 -17 15 -21 11 -3 -4 -26 13 -51 37 -32 31 -42 47 -34 56
23 28 -234 214 -366 265 -143 56 -235 72 -375 66 -69 -3 -149 -13 -178 -21
-68 -19 -193 -71 -258 -108 -67 -37 -237 -197 -230 -215 4 -8 1 -11 -5 -7 -6
3 -35 -19 -65 -50 -30 -30 -54 -53 -54 -51 0 16 155 217 209 271 100 100 271
189 423 219 150 29 201 31 329 9z m84 -264 c100 -27 199 -72 302 -139 83 -53
115 -81 94 -81 -6 0 -11 -7 -11 -15 0 -9 -7 -18 -16 -22 -13 -5 -11 -10 13
-30 15 -13 -3 -5 -42 18 -228 137 -387 185 -585 176 -222 -10 -404 -78 -622
-233 -65 -46 -118 -82 -118 -80 0 3 24 23 53 46 28 23 52 45 52 49 0 4 17 24
38 44 42 42 48 62 16 54 -12 -3 -18 -2 -13 2 139 118 295 193 469 227 97 19
268 11 370 -16z m-2346 -252 c16 -10 18 -16 9 -32 -6 -12 -12 -22 -13 -24 -1
-1 -14 2 -29 7 -25 10 -37 -1 -16 -14 18 -11 11 -41 -15 -65 l-25 -23 -26 24
-26 24 7 -25 c4 -14 10 -30 12 -37 5 -13 -46 -43 -72 -43 -9 0 -18 7 -22 17
-5 14 -8 13 -14 -6 -5 -13 -20 -24 -40 -28 -24 -4 -29 -10 -26 -24 8 -29 -6
-23 -30 14 -37 54 -31 73 25 81 81 10 173 64 241 139 29 31 34 32 60 15z
m2366 1 c78 -22 131 -116 110 -196 -10 -41 -87 -111 -131 -119 -74 -14 -157
38 -182 114 -24 72 20 166 92 198 38 16 60 17 111 3z m2011 -64 c23 -19 49
-35 56 -35 8 0 29 -11 48 -25 19 -14 44 -25 56 -25 50 0 84 -13 84 -31 0 -25
-49 -81 -50 -56 0 20 -44 24 -56 6 -4 -8 -12 -2 -21 15 -10 19 -19 25 -32 21
-24 -7 -74 12 -66 25 10 16 -16 42 -33 35 -20 -7 -63 22 -56 39 3 7 -2 21 -11
30 -15 15 -15 17 7 25 13 6 25 10 27 10 2 1 23 -15 47 -34z m-2771 -62 c-4
-10 -9 -58 -12 -108 -4 -75 -2 -101 17 -154 54 -159 182 -279 353 -332 58 -18
86 -21 185 -17 103 4 126 8 192 36 80 34 171 97 214 148 14 18 43 67 63 110
31 64 37 91 41 158 2 45 -1 99 -7 121 -6 21 -9 41 -6 43 6 6 98 -52 170 -106
33 -25 99 -84 147 -130 l87 -85 -92 -62 c-320 -217 -688 -326 -968 -286 -133
19 -323 83 -487 166 -137 69 -292 166 -292 184 0 19 213 212 295 268 97 66
111 73 100 46z m923 -212 c-3 -11 -15 -16 -43 -16 -40 0 -40 0 -40 -40 0 -22
-7 -51 -15 -65 -8 -14 -13 -33 -11 -42 1 -10 -2 -25 -7 -34 -8 -14 -16 -8 -50
37 -42 57 -76 128 -66 138 3 3 22 -13 43 -36 l36 -42 25 42 c25 43 27 45 41
84 8 21 9 21 49 6 27 -11 40 -22 38 -32z m1550 -128 c84 -125 432 -748 432
-774 0 -25 -22 -2 -63 64 -59 96 -379 651 -406 705 -19 36 -21 62 -6 62 2 0
22 -26 43 -57z m-3851 31 c5 -16 -436 -773 -473 -814 -29 -31 -14 22 28 99
194 356 418 733 431 728 6 -2 12 -8 14 -13z m5254 -285 c161 -71 292 -109 396
-116 51 -3 93 -9 93 -12 0 -3 -19 -17 -43 -30 -27 -16 -37 -19 -29 -8 12 15
10 15 -20 7 -18 -6 -69 -10 -113 -10 -77 0 -84 2 -180 52 -97 50 -188 116
-199 144 -3 8 -4 14 -2 14 1 0 45 -19 97 -41z m-6243 -448 l362 -6 -16 -24
-17 -23 -743 7 -744 7 0 -161 0 -161 -215 0 -215 0 0 25 0 25 188 2 187 3 -2
158 -2 157 427 -1 c235 -1 590 -5 790 -8z m4617 -49 c31 -6 37 -10 25 -17 -24
-16 -3485 -19 -3513 -3 -22 12 -22 12 8 19 41 9 3429 10 3480 1z m-3662 -270
c-22 -20 -43 -46 -46 -57 -4 -11 -20 -101 -38 -200 -57 -330 -88 -508 -124
-709 -39 -222 -42 -271 -19 -297 16 -17 9 -18 -155 -21 -94 -2 -171 0 -171 4
0 4 9 12 21 19 17 9 20 18 17 52 -10 97 -103 717 -108 717 -6 0 -63 -344 -101
-604 l-22 -149 22 -18 c21 -18 17 -18 -152 -21 l-175 -3 19 27 c10 14 19 37
19 50 0 13 -25 183 -55 378 -126 813 -122 794 -173 837 l-37 31 183 0 183 0
-31 -35 c-25 -28 -30 -41 -25 -66 10 -62 64 -464 76 -567 11 -96 27 -168 28
-130 1 8 12 89 26 180 13 91 36 242 50 335 13 94 27 183 30 198 4 23 -2 34
-27 58 l-32 29 189 0 189 0 -28 -29 -28 -29 31 -198 c17 -110 40 -271 51 -359
12 -88 24 -167 27 -175 9 -24 103 610 103 696 0 38 -4 45 -35 64 -19 12 -35
25 -35 28 0 4 88 6 196 4 l196 -3 -39 -37z m894 0 c-36 -37 -38 -42 -46 -134
l-8 -95 -138 -279 c-76 -153 -166 -339 -201 -411 l-63 -133 107 0 107 0 24 43
c29 51 184 276 191 277 3 0 4 -108 2 -241 -3 -227 -2 -242 17 -275 l20 -34
-410 0 -411 0 29 33 c16 18 37 55 46 82 39 109 66 172 203 480 78 176 155 349
172 386 54 118 59 109 -58 109 l-101 0 -88 -89 c-85 -86 -137 -128 -146 -119
-2 2 3 26 12 53 10 33 16 89 17 160 1 125 -9 157 -61 190 -18 11 -32 23 -33
28 0 4 192 7 427 7 l427 0 -37 -38z m973 31 c0 -4 -10 -17 -22 -31 -22 -22
-23 -32 -23 -170 0 -81 4 -168 9 -194 6 -37 5 -48 -5 -48 -17 0 -126 113 -166
173 -29 41 -37 47 -68 47 l-35 0 0 -505 c0 -537 1 -547 47 -574 13 -7 -37 -10
-167 -10 -169 0 -183 1 -158 15 53 28 52 22 56 567 l4 507 -31 0 c-27 0 -39
-11 -100 -93 -75 -98 -141 -216 -141 -248 0 -10 -5 -19 -11 -19 -8 0 -10 19
-5 63 3 34 6 152 7 261 l0 199 -32 33 -33 34 437 0 c240 0 437 -3 437 -7z
m732 -32 l-42 -38 2 -504 3 -504 123 -3 123 -3 -3 512 -3 511 -32 27 c-18 15
-33 31 -33 34 0 4 86 7 190 7 l191 0 -41 -38 -40 -39 0 -584 c0 -629 -2 -605
50 -646 12 -10 -53 -12 -327 -10 -328 2 -343 3 -370 23 -64 47 -63 34 -63 627
0 295 -2 537 -4 537 -2 0 -40 7 -83 15 -43 8 -81 15 -84 15 -4 0 -10 -29 -13
-63 -7 -62 -35 -127 -56 -127 -5 0 -10 3 -10 8 0 31 -30 184 -40 202 -6 12
-36 33 -66 47 -30 13 -54 26 -54 29 0 2 163 4 362 4 l361 0 -41 -39z m1388 34
c0 -2 -11 -15 -24 -28 -34 -34 -41 -84 -27 -184 7 -47 11 -86 9 -87 -2 -2 -28
-17 -58 -34 -30 -17 -83 -54 -118 -81 -34 -28 -63 -51 -65 -51 -1 0 -1 50 1
111 3 86 1 113 -9 120 -24 15 -235 11 -248 -4 -7 -10 -12 -142 -13 -428 l-3
-414 135 0 135 0 3 118 3 117 -70 0 -70 0 -3 93 c-2 50 -3 93 -3 94 0 1 82 3
182 5 l182 3 3 -308 3 -309 30 -24 30 -24 -349 0 c-332 0 -350 1 -381 20 -66
41 -65 29 -65 639 0 443 3 558 14 584 13 33 46 61 81 70 25 6 695 9 695 2z
m752 -18 c-12 -13 -22 -32 -22 -43 0 -10 14 -102 31 -204 16 -102 38 -239 49
-305 10 -66 37 -239 60 -385 22 -146 44 -274 47 -285 3 -11 19 -32 35 -47 l30
-28 -153 0 c-85 0 -165 -3 -179 -7 l-25 -6 28 30 c33 35 33 45 4 233 l-23 145
-87 3 c-101 3 -87 25 -117 -177 -25 -166 -25 -176 0 -201 l20 -20 -172 0 -172
0 32 31 c17 17 33 38 36 47 5 19 116 655 170 982 l34 205 -24 22 c-13 12 -24
25 -24 28 0 3 100 5 222 5 l221 0 -21 -23z m1253 -1458 c4 -6 5 -12 3 -15 -5
-5 -7982 -5 -8012 0 -11 1 -22 8 -24 14 -5 16 8024 17 8033 1z"/>
<path d="M4620 5214 c-52 -47 -97 -88 -99 -90 -6 -6 118 -132 142 -145 12 -7
8 3 -12 33 -43 62 -47 96 -17 136 l24 33 36 -54 c46 -69 79 -99 50 -47 -14 27
-19 56 -19 127 0 51 -2 93 -5 93 -3 0 -48 -39 -100 -86z"/>
<path d="M5965 5206 c0 -70 -4 -99 -19 -126 -29 -53 4 -21 39 39 17 28 35 51
42 51 16 0 53 -49 53 -69 0 -10 -13 -38 -30 -64 -16 -26 -25 -47 -20 -47 15 0
130 111 130 125 0 12 -103 111 -170 163 l-25 20 0 -92z"/>
<path d="M7946 3789 c-7 -19 -43 -248 -52 -326 l-7 -63 62 0 c42 0 61 4 61 13
0 27 -50 381 -55 385 -2 3 -7 -1 -9 -9z"/>
<path d="M5153 8348 c-106 -216 -193 -396 -193 -400 0 -3 173 -7 385 -7 220
-1 385 2 385 8 0 4 -87 185 -192 401 l-193 392 -192 -394z m359 -25 c89 -181
164 -331 166 -335 2 -5 -145 -8 -327 -8 -193 0 -331 4 -331 9 0 12 318 661
324 661 2 0 78 -147 168 -327z"/>
<path d="M5286 8412 l-56 -111 35 15 c39 16 122 19 159 4 14 -5 26 -8 26 -7 0
4 -101 201 -105 206 -2 2 -29 -47 -59 -107z"/>
<path d="M5284 8235 c-31 -47 3 -105 61 -105 40 0 75 32 75 66 0 60 -103 89
-136 39z"/>
<path d="M5209 8215 c-16 -9 -42 -45 -68 -95 l-42 -80 246 0 247 0 -28 48
c-15 26 -41 67 -58 92 l-31 45 -5 -35 c-9 -49 -26 -77 -59 -94 -57 -30 -111
-25 -151 16 -28 27 -31 37 -28 75 2 23 3 43 3 43 0 -1 -12 -7 -26 -15z"/>
<path d="M4293 8275 c-24 -25 -43 -51 -43 -60 0 -8 -4 -15 -10 -15 -5 0 -10
-13 -10 -30 0 -16 -4 -30 -10 -30 -6 0 -10 -33 -10 -80 0 -47 4 -80 10 -80 6
0 10 -9 10 -20 0 -11 5 -20 10 -20 6 0 10 -7 10 -15 0 -20 65 -85 85 -85 8 0
15 -4 15 -10 0 -6 49 -10 128 -10 116 0 129 2 142 20 8 11 20 20 28 20 18 0
42 25 42 44 0 9 5 16 10 16 6 0 10 9 10 20 0 11 5 20 10 20 6 0 10 43 10 110
0 67 -4 110 -10 110 -5 0 -10 7 -10 15 0 20 -85 105 -105 105 -8 0 -15 5 -15
10 0 6 -49 10 -127 9 l-128 0 -42 -44z m265 -21 c100 -42 141 -155 93 -260
-64 -140 -232 -166 -328 -50 -92 112 -59 264 68 315 37 15 126 13 167 -5z"/>
<path d="M4351 8163 c0 -5 26 -59 58 -122 l58 -115 40 70 c22 38 52 93 67 122
l26 52 -125 0 c-69 0 -125 -3 -124 -7z"/>
<path d="M6090 8310 c0 -5 -7 -10 -15 -10 -9 0 -31 -16 -50 -35 -19 -19 -35
-41 -35 -50 0 -8 -4 -15 -10 -15 -5 0 -10 -9 -10 -20 0 -11 -4 -20 -10 -20 -6
0 -10 -37 -10 -90 0 -53 4 -90 10 -90 6 0 10 -13 10 -30 0 -16 5 -30 10 -30 6
0 10 -7 10 -15 0 -20 45 -65 65 -65 8 0 15 -4 15 -10 0 -5 14 -10 30 -10 17 0
30 -4 30 -10 0 -6 37 -10 90 -10 53 0 90 4 90 10 0 6 9 10 20 10 11 0 20 5 20
10 0 6 7 10 15 10 9 0 31 16 50 35 19 19 35 41 35 50 0 8 5 15 10 15 6 0 10
47 10 120 0 73 -4 120 -10 120 -5 0 -10 9 -10 20 0 11 -4 20 -10 20 -5 0 -10
7 -10 16 0 19 -24 44 -42 44 -8 0 -20 9 -28 20 -13 18 -26 20 -142 20 -79 0
-128 -4 -128 -10z m165 -41 c176 -49 223 -254 82 -362 -101 -77 -243 -42 -301
74 -46 93 -30 179 44 242 36 30 89 55 120 56 8 1 33 -4 55 -10z"/>
<path d="M3650 8070 c0 -5 -7 -10 -16 -10 -20 0 -44 -24 -44 -44 0 -9 -4 -16
-10 -16 -5 0 -10 -9 -10 -20 0 -11 -4 -20 -10 -20 -6 0 -9 -23 -9 -52 1 -49 2
-50 8 -18 9 44 43 110 68 132 50 45 152 61 216 35 175 -74 184 -311 15 -398
-44 -23 -124 -25 -172 -5 -51 21 -104 80 -120 134 l-15 47 0 -47 c-1 -27 4
-48 9 -48 6 0 10 -7 10 -15 0 -20 45 -65 65 -65 8 0 15 -4 15 -10 0 -5 9 -10
20 -10 11 0 20 -4 20 -10 0 -6 33 -10 80 -10 47 0 80 4 80 10 0 6 9 10 20 10
11 0 20 5 20 10 0 6 7 10 15 10 20 0 65 45 65 65 0 8 5 15 10 15 6 0 10 43 10
110 0 67 -4 110 -10 110 -5 0 -10 7 -10 15 0 20 -65 85 -85 85 -8 0 -15 5 -15
10 0 6 -43 10 -110 10 -67 0 -110 -4 -110 -10z"/>
<path d="M6830 8070 c0 -5 -7 -10 -15 -10 -9 0 -31 -16 -50 -35 -19 -19 -35
-41 -35 -50 0 -8 -4 -15 -10 -15 -6 0 -10 -43 -10 -110 0 -67 4 -110 10 -110
6 0 10 -7 10 -15 0 -20 45 -65 65 -65 8 0 15 -4 15 -10 0 -5 9 -10 20 -10 11
0 20 -4 20 -10 0 -6 33 -10 80 -10 47 0 80 4 80 10 0 6 9 10 20 10 11 0 20 5
20 10 0 6 7 10 15 10 9 0 27 11 40 25 14 13 25 31 25 40 0 8 5 15 10 15 6 0 9
27 9 63 l-1 62 -8 -48 c-22 -128 -153 -207 -275 -167 -47 16 -114 75 -132 117
-36 88 1 219 77 269 53 35 132 43 193 20 56 -21 115 -82 132 -137 l14 -44 0
43 c1 23 -3 42 -9 42 -5 0 -10 7 -10 15 0 20 -65 85 -85 85 -8 0 -15 5 -15 10
0 6 -40 10 -100 10 -60 0 -100 -4 -100 -10z"/>
<path d="M7550 8040 l0 -40 190 0 c120 0 190 -4 190 -10 0 -5 -4 -10 -10 -10
-5 0 -10 -8 -10 -18 0 -10 -9 -24 -20 -32 -11 -8 -20 -22 -20 -32 0 -10 -4
-18 -10 -18 -5 0 -10 -9 -10 -20 0 -11 -4 -20 -10 -20 -5 0 -10 -9 -10 -20 0
-11 -4 -20 -10 -20 -5 0 -10 -9 -10 -20 0 -11 -4 -20 -10 -20 -5 0 -10 -8 -10
-18 0 -10 -9 -24 -20 -32 -11 -8 -20 -22 -20 -32 0 -10 -4 -18 -10 -18 -5 0
-10 -8 -10 -18 0 -10 -9 -24 -20 -32 -11 -8 -20 -22 -20 -32 0 -10 -4 -18 -10
-18 -5 0 -10 -9 -10 -20 0 -11 -4 -20 -10 -20 -15 0 -12 -29 4 -46 11 -10 43
-14 126 -14 83 0 115 4 126 14 16 17 19 46 4 46 -5 0 -10 9 -10 20 0 17 -7 20
-39 20 -22 0 -41 -5 -44 -12 -2 -8 -8 -9 -13 -4 -5 5 -4 11 4 13 6 3 12 13 12
24 0 10 5 19 10 19 6 0 10 9 10 20 0 11 5 20 10 20 6 0 10 9 10 20 0 11 5 20
10 20 6 0 10 9 10 20 0 11 5 20 10 20 6 0 10 9 10 20 0 11 5 20 10 20 6 0 10
9 10 20 0 11 5 20 10 20 6 0 10 8 10 18 0 10 9 24 20 32 11 8 20 22 20 32 0
10 5 18 10 18 6 0 10 7 10 16 0 8 23 37 50 64 34 33 50 57 50 74 0 26 0 26
-82 24 l-83 -2 66 -5 67 -6 -77 -115 c-73 -111 -77 -114 -94 -97 -17 17 -16
21 23 92 l41 75 -206 0 -207 0 4 30 c3 17 1 30 -4 30 -4 0 -8 -18 -8 -40z"/>
<path d="M3732 7858 l3 -163 33 -3 32 -3 0 165 0 166 -35 0 -35 0 2 -162z"/>
<path d="M6900 7855 l0 -165 30 0 30 0 0 165 0 165 -30 0 -30 0 0 -165z"/>
<path d="M3330 7972 c0 -5 11 -19 25 -32 41 -38 65 -120 75 -258 7 -93 15
-137 31 -169 12 -24 24 -42 27 -39 2 3 -1 12 -8 21 -23 28 -4 15 39 -25 61
-58 149 -100 211 -100 59 0 98 15 227 86 104 57 164 81 241 94 l47 8 -57 1
c-33 0 -58 -3 -58 -9 0 -5 -18 -10 -40 -10 -22 0 -40 -4 -40 -10 0 -5 -9 -10
-20 -10 -11 0 -20 -4 -20 -10 0 -5 -9 -10 -20 -10 -11 0 -20 -4 -20 -10 0 -5
-9 -10 -20 -10 -11 0 -20 -4 -20 -10 0 -5 -8 -10 -18 -10 -10 0 -24 -9 -32
-20 -8 -11 -22 -20 -32 -20 -10 0 -18 -4 -18 -10 0 -5 -9 -10 -20 -10 -11 0
-20 -4 -20 -10 0 -5 -22 -10 -50 -10 -27 0 -50 5 -50 10 0 6 -9 10 -20 10 -11
0 -20 5 -20 10 0 6 -7 10 -16 10 -8 0 -37 23 -64 50 -27 28 -54 50 -60 50 -6
0 -22 11 -35 25 -23 23 -25 31 -25 130 0 63 -4 105 -10 105 -5 0 -10 23 -10
50 0 28 -4 50 -10 50 -5 0 -10 9 -10 20 0 11 -4 20 -10 20 -5 0 -10 7 -10 16
0 8 -6 22 -14 30 -16 15 -46 19 -46 6z"/>
<path d="M8490 7500 l0 -100 -90 0 -90 0 0 -50 0 -50 90 0 90 0 0 -90 c0 -53
4 -90 10 -90 6 0 10 40 10 100 l0 100 -90 0 -90 0 0 30 0 30 90 0 90 0 0 100
0 100 35 0 35 0 0 -95 0 -95 95 0 95 0 0 -35 0 -35 -95 0 -95 0 0 -94 c0 -82
-2 -95 -17 -99 -14 -4 -12 -5 5 -6 21 -1 22 2 22 89 l0 90 100 0 100 0 0 50 0
50 -100 0 -100 0 0 100 0 100 -50 0 -50 0 0 -100z"/>
<path d="M1030 2990 l0 -230 50 0 50 0 0 230 0 230 -50 0 -50 0 0 -230z"/>
<path d="M9650 2990 l0 -230 50 0 50 0 0 230 0 230 -50 0 -50 0 0 -230z"/>
</g>
</svg>
